# xmcd CD database file
#
# Track frame offsets:
#	151
#	17522
#	34678
#	53577
#	67764
#	80437
#	95621
#	120340
#	141220
#	155444
#	174552
#	192655
#	206720
#	219970
#	240762
#
# Disc length: 3441 seconds
#
# Revision: 0
# Processed by: cddbd v1.5.2PL0 Copyright (c) Steve Scherf et al.
# Submitted via: jetAudio 7
#
DISCID=bc0d6f0f
DTITLE=Bonnie Raitt - The Lost Broadcast   Bonnie Raitt   Philadelphia 
DTITLE=1972
DYEAR=1900
DGENRE=Blues
TTITLE0=Mighty Tight Woman
TTITLE1=Rollin' &Tumblin'
TTITLE2=Any Day Woman
TTITLE3=Woman Be Wise
TTITLE4=Thank You
TTITLE5=Bluebird
TTITLE6=Finest Lovin' Man
TTITLE7=Big Road
TTITLE8=Stayed Too Long At The Fair
TTITLE9=Under The Falling Sky
TTITLE10=Walkin' Blues
TTITLE11=Can't Find My Way Home
TTITLE12=Richland Woman Blues
TTITLE13=Blender Blues
TTITLE14=Since I Fell For You
EXTD=Rainbow Rooms, Sigma Sound Studios, Philadelphia. Broadcast onWMMR
EXTD=, February 22, 1972
EXTT0=
EXTT1=
EXTT2=
EXTT3=
EXTT4=
EXTT5=
EXTT6=
EXTT7=
EXTT8=
EXTT9=
EXTT10=
EXTT11=
EXTT12=
EXTT13=
EXTT14=
PLAYORDER=
